<?xml version="1.0" encoding="UTF-8" standalone="no"?>
<!-- Generator: Adobe Illustrator 22.1.0, SVG Export Plug-In . SVG Version: 6.00 Build 0)  -->

<svg
   xmlns:dc="http://purl.org/dc/elements/1.1/"
   xmlns:cc="http://creativecommons.org/ns#"
   xmlns:rdf="http://www.w3.org/1999/02/22-rdf-syntax-ns#"
   xmlns:svg="http://www.w3.org/2000/svg"
   xmlns="http://www.w3.org/2000/svg"
   xmlns:sodipodi="http://sodipodi.sourceforge.net/DTD/sodipodi-0.dtd"
   xmlns:inkscape="http://www.inkscape.org/namespaces/inkscape"
   version="1.1"
   id="Capa_1"
   x="0px"
   y="0px"
   viewBox="0 0 28.1 23"
   xml:space="preserve"
   sodipodi:docname="inactive.svg"
   width="28.1"
   height="23"
   inkscape:version="0.92.4 (unknown)"><metadata
   id="metadata13"><rdf:RDF><cc:Work
       rdf:about=""><dc:format>image/svg+xml</dc:format><dc:type
         rdf:resource="http://purl.org/dc/dcmitype/StillImage" /></cc:Work></rdf:RDF></metadata><defs
   id="defs11" /><sodipodi:namedview
   pagecolor="#ffffff"
   bordercolor="#666666"
   borderopacity="1"
   objecttolerance="10"
   gridtolerance="10"
   guidetolerance="10"
   inkscape:pageopacity="0"
   inkscape:pageshadow="2"
   inkscape:window-width="640"
   inkscape:window-height="480"
   id="namedview9"
   showgrid="false"
   inkscape:zoom="5.3273139"
   inkscape:cx="13.979461"
   inkscape:cy="11.59223"
   inkscape:window-x="0"
   inkscape:window-y="27"
   inkscape:window-maximized="0"
   inkscape:current-layer="Capa_1" />
<style
   type="text/css"
   id="style2">
	.st0{opacity:0.5;}
	.st1{fill:#FFFFFF;}
</style>
<g
   id="layer1_5_"
   transform="translate(-553.9,-579.6)"
   class="st0"
   style="opacity:0.5">
	<g
   id="g5">
		<path
   id="path3611_9_"
   class="st1"
   d="m 562.6,602.6 c 10.7,0 16.5,-8.9 16.5,-16.5 0,-0.3 0,-0.5 0,-0.8 1.1,-0.8 2.1,-1.8 2.9,-3 -1,0.5 -2.2,0.8 -3.3,0.9 1.2,-0.7 2.1,-1.9 2.6,-3.2 -1.1,0.7 -2.4,1.2 -3.7,1.4 -1.1,-1.1 -2.6,-1.8 -4.2,-1.8 -3.2,0 -5.8,2.6 -5.8,5.8 0,0.5 0.1,0.9 0.2,1.3 -4.8,-0.2 -9.1,-2.6 -12,-6.1 -0.5,0.9 -0.8,1.9 -0.8,2.9 0,2 1,3.8 2.6,4.8 -1,0 -1.9,-0.3 -2.6,-0.7 0,0 0,0 0,0.1 0,2.8 2,5.2 4.7,5.7 -0.5,0.1 -1,0.2 -1.5,0.2 -0.4,0 -0.7,0 -1.1,-0.1 0.7,2.3 2.9,4 5.4,4 -2,1.6 -4.5,2.5 -7.2,2.5 -0.5,0 -0.9,0 -1.4,-0.1 2.4,1.7 5.4,2.7 8.7,2.7"
   inkscape:connector-curvature="0"
   style="fill:#ffffff" />
	</g>
</g>
</svg>