<?xml version="1.0" encoding="UTF-8" standalone="no"?>
<!-- Generator: Adobe Illustrator 22.1.0, SVG Export Plug-In . SVG Version: 6.00 Build 0)  -->

<svg
   xmlns:dc="http://purl.org/dc/elements/1.1/"
   xmlns:cc="http://creativecommons.org/ns#"
   xmlns:rdf="http://www.w3.org/1999/02/22-rdf-syntax-ns#"
   xmlns:svg="http://www.w3.org/2000/svg"
   xmlns="http://www.w3.org/2000/svg"
   xmlns:sodipodi="http://sodipodi.sourceforge.net/DTD/sodipodi-0.dtd"
   xmlns:inkscape="http://www.inkscape.org/namespaces/inkscape"
   version="1.1"
   id="Capa_1"
   x="0px"
   y="0px"
   viewBox="0 0 23.501392 23.015662"
   xml:space="preserve"
   sodipodi:docname="inactive.svg"
   width="23.501392"
   height="23.015661"
   inkscape:version="0.92.4 (unknown)"><metadata
   id="metadata13"><rdf:RDF><cc:Work
       rdf:about=""><dc:format>image/svg+xml</dc:format><dc:type
         rdf:resource="http://purl.org/dc/dcmitype/StillImage" /></cc:Work></rdf:RDF></metadata><defs
   id="defs11" /><sodipodi:namedview
   pagecolor="#ffffff"
   bordercolor="#666666"
   borderopacity="1"
   objecttolerance="10"
   gridtolerance="10"
   guidetolerance="10"
   inkscape:pageopacity="0"
   inkscape:pageshadow="2"
   inkscape:window-width="640"
   inkscape:window-height="480"
   id="namedview9"
   showgrid="false"
   inkscape:zoom="5.3273139"
   inkscape:cx="11.800001"
   inkscape:cy="11.565662"
   inkscape:window-x="0"
   inkscape:window-y="27"
   inkscape:window-maximized="0"
   inkscape:current-layer="Capa_1" />
<style
   type="text/css"
   id="style2">
	.st0{opacity:0.5;}
	.st1{fill:#FFFFFF;}
</style>
<g
   id="Page-1_1_"
   class="st0"
   style="opacity:0.5"
   transform="translate(-16.9,-10.7)">
	<g
   id="Desktop-HD_1_"
   transform="translate(-206,-842)">
		<g
   id="Social_1_"
   transform="translate(76,842)">
			<path
   id="Shape_1_"
   class="st1"
   d="m 158.7,10.7 c -6.5,0 -11.8,5.3 -11.8,11.8 0,5.2 3.3,9.6 8.1,11.2 0.6,0.1 0.8,-0.3 0.8,-0.6 v -2 c -3.2,0.7 -3.9,-1.6 -3.9,-1.6 -0.5,-1.4 -1.3,-1.8 -1.3,-1.8 -1.2,-0.7 0,-0.7 0,-0.7 1.2,0.1 1.8,1.2 1.8,1.2 1.1,1.8 2.8,1.3 3.4,1 0.1,-0.8 0.4,-1.3 0.8,-1.6 -2.7,-0.3 -5.4,-1.3 -5.4,-5.8 0,-1.3 0.5,-2.4 1.2,-3.1 0,-0.4 -0.5,-1.6 0.2,-3.1 0,0 1,-0.3 3.2,1.2 1,-0.3 2,-0.4 2.9,-0.4 0.9,0 2,0.1 2.9,0.4 2.3,-1.6 3.2,-1.2 3.2,-1.2 0.7,1.7 0.2,2.8 0.1,3.1 0.8,0.8 1.2,1.9 1.2,3.1 0,4.5 -2.8,5.5 -5.4,5.8 0.4,0.4 0.8,1.1 0.8,2.2 V 33 c 0,0.3 0.2,0.7 0.8,0.6 4.7,-1.6 8.1,-6 8.1,-11.2 0.1,-6.4 -5.2,-11.7 -11.7,-11.7 z"
   inkscape:connector-curvature="0"
   style="fill:#ffffff" />
		</g>
	</g>
</g>
</svg>