<?xml version="1.0" encoding="utf-8"?>
<!-- Generator: Adobe Illustrator 22.1.0, SVG Export Plug-In . SVG Version: 6.00 Build 0)  -->
<svg version="1.1" id="Capa_1" xmlns="http://www.w3.org/2000/svg" xmlns:xlink="http://www.w3.org/1999/xlink" x="0px" y="0px"
	 viewBox="0 0 61.8 65.3" style="enable-background:new 0 0 61.8 65.3;" xml:space="preserve">
<style type="text/css">
	.st0{fill:#F3F3F3;}
	.st1{fill:#E9E73C;}
</style>
<title>sintesis logo 1</title>
<g id="Capa_2_1_">
	<g id="Capa_1-2">
		<path class="st0" d="M48.7,28c0.7-0.6,1.1-1.8,1.1-3.6v-16c0-3.1,0.6-5.3,1.7-6.6S54.6,0,57.3,0h4.5v4.9h-3.5
			c-0.8-0.1-1.7,0.1-2.4,0.5c-0.6,0.5-0.8,1.3-0.7,2.1v17c0.1,2-0.5,4-1.7,5.7c-1,1.4-2.5,2.3-4.2,2.6c1.7,0.2,3.2,1.1,4.2,2.5
			c1.2,1.7,1.8,3.7,1.7,5.7v16.9c-0.1,0.7,0.2,1.5,0.7,2c0.7,0.4,1.6,0.6,2.4,0.5h3.5v4.9h-4.5c-2.7,0-4.7-0.6-5.8-1.9
			s-1.7-3.5-1.7-6.6V40.9c0-1.8-0.4-3-1.1-3.6c-1.2-0.7-2.5-1-3.8-0.9v-7.6C46.2,29,47.5,28.7,48.7,28z"/>
		<path class="st0" d="M3.3,18.7v1c1-0.7,2.1-1.1,3.3-1h1.5c2.4,0,4.2,0.5,5.4,1.6c1.1,1,1.7,2.7,1.7,5.1v7.5c0,2.3-0.6,4-1.7,5.1
			s-2.9,1.6-5.4,1.6H3.5v7.1H0V18.7H3.3z M4.2,22.5c-0.4,0.4-0.7,1-0.7,1.6v12.3h5c0.8,0.1,1.7-0.2,2.3-0.7c0.5-0.5,0.8-1.2,0.8-2
			v-9.2c0-0.8-0.2-1.5-0.8-2c-0.7-0.5-1.5-0.8-2.3-0.7H6.3C5.5,21.7,4.8,22,4.2,22.5z"/>
		<path class="st1" d="M36.2,45.2c-1.1,0.9-2.9,1.4-5.2,1.4h-8.7v-3.1h9.1c0.8,0.1,1.6-0.2,2.2-0.6c0.5-0.3,0.8-0.9,0.8-1.5v-1.3
			c0-0.6-0.3-1.2-0.8-1.5c-0.7-0.4-1.5-0.6-2.2-0.5h-7.2v-5.8c-0.9-0.5-1.6-1.2-2-2.2c-0.5-1.2-0.7-2.4-0.7-3.7v-1
			c0-2.3,0.6-4,1.7-5.1c1.2-1,2.9-1.6,5.4-1.6h8.7v7.7c0.1,1.8-0.5,3.6-1.7,4.9c-1.2,1.2-2.8,1.8-4.5,1.8h-3.3v1.8H31
			c2.4,0,4.2,0.5,5.3,1.4c1.2,1.1,1.8,2.6,1.7,4.2V41C38.1,42.6,37.4,44.1,36.2,45.2z M33,29.1c0.4-0.5,0.7-1.1,0.8-1.8v-5.5h-5.6
			c-0.8-0.1-1.7,0.2-2.3,0.7c-0.5,0.5-0.8,1.2-0.8,2v2.7c0,0.8,0.2,1.5,0.8,2c0.7,0.5,1.5,0.8,2.3,0.7H31C31.8,30,32.5,29.7,33,29.1
			z"/>
	</g>
</g>
</svg>
