<svg xmlns="http://www.w3.org/2000/svg" viewBox="0 0 61.84 65.28"><defs><style>.cls-1{fill:#253342;}.cls-2{fill:#e9e73c;}</style></defs><title>sintesis logo</title><g id="Capa_2" data-name="Capa 2"><g id="Capa_1-2" data-name="Capa 1"><path class="cls-1" d="M48.68,28q1.08-.87,1.08-3.57V8.47c0-3.1.57-5.29,1.73-6.56S54.59,0,57.32,0h4.52V4.86H58.3a4.23,4.23,0,0,0-2.4.52,2.4,2.4,0,0,0-.73,2.05v17a9.06,9.06,0,0,1-1.7,5.69,6.53,6.53,0,0,1-4.2,2.64,6,6,0,0,1,4.2,2.5,9.07,9.07,0,0,1,1.7,5.7V57.85a2.4,2.4,0,0,0,.73,2,4.23,4.23,0,0,0,2.4.52h3.54v4.86H57.32c-2.73,0-4.67-.63-5.83-1.91s-1.73-3.46-1.73-6.56V40.91c0-1.81-.36-3-1.08-3.58a6.34,6.34,0,0,0-3.85-.87V28.82A6.34,6.34,0,0,0,48.68,28Z"/><path class="cls-1" d="M3.33,18.68v1a5.29,5.29,0,0,1,3.34-1h1.5q3.66,0,5.37,1.56t1.71,5.11v7.5c0,2.33-.58,4-1.73,5.08s-2.94,1.59-5.35,1.59H3.54V46.6H0V18.68Zm.88,3.86a2.24,2.24,0,0,0-.67,1.56V36.39h5a3.38,3.38,0,0,0,2.34-.71,2.57,2.57,0,0,0,.79-2V24.52a2.55,2.55,0,0,0-.79-2,3.38,3.38,0,0,0-2.34-.71H6.25A2.61,2.61,0,0,0,4.21,22.54Z"/><path class="cls-2" d="M36.24,45.2Q34.55,46.6,31,46.6H22.3V43.48h9.08a3.62,3.62,0,0,0,2.25-.59,1.82,1.82,0,0,0,.75-1.5V40.06a1.79,1.79,0,0,0-.75-1.52A3.69,3.69,0,0,0,31.38,38H24.17V32.22a4.69,4.69,0,0,1-2-2.16,8.75,8.75,0,0,1-.67-3.67v-1q0-3.5,1.73-5.09c1.16-1.05,2.94-1.58,5.36-1.58H37.3v7.71a6.77,6.77,0,0,1-1.71,4.9,6,6,0,0,1-4.54,1.77H27.71v1.79H31q3.59,0,5.28,1.4a5.17,5.17,0,0,1,1.68,4.22V41A5.18,5.18,0,0,1,36.24,45.2ZM33,29.1a3.34,3.34,0,0,0,.75-1.75V21.81H28.13a3.33,3.33,0,0,0-2.33.71,2.52,2.52,0,0,0-.79,2v2.7a2.52,2.52,0,0,0,.79,2,3.33,3.33,0,0,0,2.33.71h2.92A2.36,2.36,0,0,0,33,29.1Z"/></g></g></svg>